<svg width="67" height="67" viewBox="0 0 67 67" fill="none" xmlns="http://www.w3.org/2000/svg">
<path d="M49 -7.86805e-07C58.9411 -3.52265e-07 67 8.05888 67 18L67 49C67 58.9411 58.9411 67 49 67L18 67C8.05887 67 -2.5764e-06 58.9411 -2.14186e-06 49L-7.86805e-07 18C-3.52265e-07 8.05887 8.05888 -2.5764e-06 18 -2.14186e-06L49 -7.86805e-07Z" fill="black" fill-opacity="0.15"/>
<rect x="49.5217" y="49.5217" width="32.0435" height="32.0435" rx="11" transform="rotate(-180 49.5217 49.5217)" fill="#494949"/>
<path d="M40.4764 37.3138C40.4135 37.2358 40.3517 37.1577 40.2911 37.0824C39.4573 36.0443 38.9529 35.4177 38.9529 32.4788C38.9529 30.9572 38.5993 29.7088 37.9024 28.7725C37.3885 28.0807 36.6938 27.556 35.7782 27.1682C35.7664 27.1615 35.7559 27.1526 35.7471 27.1421C35.4178 26.0068 34.5165 25.2464 33.5001 25.2464C32.4837 25.2464 31.5828 26.0068 31.2535 27.1409C31.2447 27.1511 31.2343 27.1596 31.2228 27.1663C29.0861 28.0718 28.0477 29.8091 28.0477 32.4776C28.0477 35.4177 27.544 36.0443 26.7095 37.0813C26.6489 37.1566 26.5871 37.233 26.5242 37.3126C26.3617 37.5144 26.2587 37.7598 26.2275 38.0199C26.1962 38.28 26.238 38.5439 26.3479 38.7803C26.5818 39.2875 27.0801 39.6024 27.649 39.6024L39.3554 39.6024C39.9216 39.6024 40.4165 39.2879 40.6511 38.7831C40.7615 38.5466 40.8037 38.2825 40.7727 38.0221C40.7418 37.7617 40.6389 37.5159 40.4764 37.3138ZM33.5001 42.7246C34.0477 42.7242 34.5851 42.5712 35.0551 42.2818C35.525 41.9924 35.9102 41.5775 36.1697 41.081C36.1819 41.0572 36.1879 41.0305 36.1872 41.0036C36.1864 40.9767 36.179 40.9505 36.1655 40.9274C36.152 40.9044 36.1329 40.8853 36.1101 40.8721C36.0874 40.8589 36.0616 40.8519 36.0355 40.852L30.9655 40.852C30.9393 40.8519 30.9135 40.8588 30.8907 40.872C30.8679 40.8852 30.8488 40.9042 30.8352 40.9273C30.8217 40.9503 30.8142 40.9766 30.8134 41.0035C30.8126 41.0305 30.8187 41.0572 30.8309 41.081C31.0904 41.5774 31.4754 41.9923 31.9454 42.2817C32.4153 42.5711 32.9525 42.7241 33.5001 42.7246Z" fill="white"/>
<ellipse cx="48.5507" cy="19.4203" rx="8.73913" ry="8.73913" fill="#FF7562"/>
<path d="M29.1304 43.6957L33.0145 46.6087L36.8986 43.6957" stroke="#494949" stroke-width="3" stroke-linecap="round" stroke-linejoin="round"/>
<text fill="white" xml:space="preserve" style="white-space: pre" font-family="Mont-Black" font-size="12" letter-spacing="0em"><tspan x="41.8711" y="23.5242">12</tspan></text>
</svg>
