<svg width="431" height="67" viewBox="0 0 431 67" fill="none" xmlns="http://www.w3.org/2000/svg">
<path d="M0 7.88232H431V52.9231C431 60.6975 424.698 67 416.923 67H14.0769C6.30246 67 0 60.6975 0 52.923V7.88232Z" fill="#494949"/>
<path d="M86.3653 42.7693L85.8374 41.0625H81.9135L81.368 42.7693H76.9514L81.8607 30.452H85.9782L90.9227 42.7693H86.3653ZM85.0808 38.1943L83.8842 34.7982L82.6877 38.1943H85.0808ZM107.224 42.7693H102.438L99.6753 38.0887V42.7693H95.593V30.452H99.6753V34.939L102.192 30.452H106.978L103.107 36.5051L107.224 42.7693ZM123.488 30.452L119.176 38.1767V42.7693H115.041V38.1767L110.748 30.452H115.464L117.118 34.2527L118.772 30.452H123.488ZM134.666 42.7693L134.138 41.0625H130.214L129.669 42.7693H125.252L130.161 30.452H134.279L139.223 42.7693H134.666ZM133.382 38.1943L132.185 34.7982L130.988 38.1943H133.382ZM155.525 42.7693H150.739L147.976 38.0887V42.7693H143.894V30.452H147.976V34.939L150.492 30.452H155.278L151.407 36.5051L155.525 42.7693ZM168.304 42.7693L167.776 41.0625H163.852L163.307 42.7693H158.89L163.8 30.452H167.917L172.862 42.7693H168.304ZM167.02 38.1943L165.823 34.7982L164.627 38.1943H167.02ZM193.753 42.7693L192.522 39.8131H186.609L185.395 42.7693H183.759L188.791 30.452H190.234L195.425 42.7693H193.753ZM189.548 32.5811L187.19 38.4054H191.941L189.548 32.5811ZM208.205 31.9125H202.82V35.9772H207.747V37.4201H202.82V42.7693H201.289V30.452H208.205V31.9125ZM215.902 41.2912H221.533V42.7693H214.371V30.452H221.339V31.9125H215.902V35.7308H220.881V37.1561H215.902V41.2912ZM235.693 30.452V31.8949H231.945V42.7693H230.396V31.8949H226.648V30.452H235.693ZM254.471 36.6634H261.07C261.034 38.5169 260.442 40.036 259.292 41.2208C258.154 42.3939 256.694 42.9804 254.911 42.9804C253.104 42.9804 251.609 42.3822 250.424 41.1856C249.251 39.9774 248.664 38.4524 248.664 36.6106C248.664 34.7806 249.251 33.2674 250.424 32.0708C251.609 30.8626 253.093 30.2584 254.876 30.2584C255.861 30.2584 256.776 30.452 257.621 30.8391C258.477 31.2145 259.187 31.7424 259.75 32.4227C260.325 33.1031 260.7 33.8774 260.876 34.7454H259.292C259.116 34.1589 258.817 33.6427 258.395 33.197C257.973 32.7395 257.456 32.3876 256.846 32.1412C256.248 31.8949 255.603 31.7717 254.911 31.7717C254.019 31.7717 253.216 31.977 252.5 32.3876C251.796 32.7981 251.245 33.3729 250.846 34.112C250.447 34.851 250.248 35.6839 250.248 36.6106C250.248 38.0418 250.676 39.209 251.532 40.1123C252.401 41.0155 253.527 41.4672 254.911 41.4672C255.662 41.4672 256.348 41.3264 256.97 41.0449C257.603 40.7633 258.125 40.3703 258.536 39.8659C258.958 39.3615 259.245 38.7808 259.398 38.1239H254.471V36.6634ZM270.235 28.9035V27.1791H271.959V28.9035H270.235ZM274.07 28.9035V27.1791H275.777V28.9035H274.07ZM277.643 41.168C276.423 42.3763 274.88 42.9804 273.015 42.9804C271.161 42.9804 269.625 42.3763 268.405 41.168C267.185 39.9598 266.575 38.4465 266.575 36.6282C266.575 34.7982 267.185 33.2791 268.405 32.0708C269.625 30.8508 271.161 30.2408 273.015 30.2408C274.88 30.2408 276.423 30.845 277.643 32.0532C278.863 33.2615 279.473 34.7806 279.473 36.6106C279.473 38.4406 278.863 39.9598 277.643 41.168ZM269.531 40.0771C270.457 41.0038 271.619 41.4672 273.015 41.4672C274.422 41.4672 275.584 41.0097 276.499 40.0947C277.425 39.1679 277.889 38.0066 277.889 36.6106C277.889 35.2147 277.425 34.0592 276.499 33.1442C275.584 32.2175 274.422 31.7541 273.015 31.7541C271.619 31.7541 270.457 32.2175 269.531 33.1442C268.616 34.0709 268.158 35.2264 268.158 36.6106C268.158 37.9949 268.616 39.1503 269.531 40.0771ZM294.185 30.452H295.698V42.7693H294.396L287.375 33.1618V42.7693H285.879V30.452H287.269L294.185 39.9539V30.452ZM304.848 28.9035V27.1791H306.555V28.9035H304.848ZM308.667 28.9035V27.1791H310.391V28.9035H308.667ZM307.629 42.9804C306.233 42.9804 305.071 42.5288 304.145 41.6255C303.23 40.7223 302.772 39.5727 302.772 38.1767V30.452H304.338V38.0711C304.338 39.08 304.643 39.9011 305.253 40.5346C305.863 41.1563 306.655 41.4672 307.629 41.4672C308.25 41.4672 308.808 41.3264 309.3 41.0449C309.805 40.7633 310.192 40.3645 310.462 39.8483C310.743 39.3322 310.884 38.7398 310.884 38.0711V30.452H312.45V38.1767C312.45 39.5727 311.992 40.7223 311.077 41.6255C310.162 42.5288 309.013 42.9804 307.629 42.9804ZM321.066 41.3264H326.485V42.7693H319.535V30.452H321.066V41.3264ZM333.941 41.3264H339.361V42.7693H332.41V30.452H333.941V41.3264ZM346.671 28.9035V27.1791H348.378V28.9035H346.671ZM350.489 28.9035V27.1791H352.214V28.9035H350.489ZM349.451 42.9804C348.055 42.9804 346.894 42.5288 345.967 41.6255C345.052 40.7223 344.595 39.5727 344.595 38.1767V30.452H346.161V38.0711C346.161 39.08 346.466 39.9011 347.076 40.5346C347.686 41.1563 348.477 41.4672 349.451 41.4672C350.073 41.4672 350.63 41.3264 351.123 41.0449C351.627 40.7633 352.014 40.3645 352.284 39.8483C352.566 39.3322 352.706 38.7398 352.706 38.0711V30.452H354.272V38.1767C354.272 39.5727 353.815 40.7223 352.9 41.6255C351.985 42.5288 350.835 42.9804 349.451 42.9804ZM362.888 41.3264H368.308V42.7693H361.357V30.452H362.888V41.3264ZM375.763 41.2912H381.394V42.7693H374.233V30.452H381.201V31.9125H375.763V35.7308H380.743V37.1561H375.763V41.2912ZM394.991 42.7693L392.176 37.9479H389.361V42.7693H387.83V30.452H392.493C393.654 30.452 394.61 30.8098 395.361 31.5253C396.123 32.2292 396.505 33.1266 396.505 34.2176C396.505 35.0739 396.258 35.8247 395.766 36.4699C395.273 37.1033 394.616 37.5374 393.795 37.772L396.733 42.7693H394.991ZM389.361 31.9125V36.4875H392.422C393.161 36.4875 393.766 36.2763 394.235 35.854C394.704 35.42 394.939 34.8686 394.939 34.2C394.939 33.5313 394.704 32.9858 394.235 32.5635C393.766 32.1295 393.161 31.9125 392.422 31.9125H389.361ZM402.919 28.9035V27.1791H404.644V28.9035H402.919ZM403.025 42.7693V30.452H404.556V42.7693H403.025Z" fill="white"/>
<path d="M0 7.73071H58.7766V66.9999H14.0769C6.30245 66.9999 0 60.6975 0 52.923V7.73071Z" fill="#3C3C3C"/>
<rect x="59" y="7.88232" width="7.88234" height="372" transform="rotate(-90 59 7.88232)" fill="#71F095"/>
<rect y="7.68848" width="7.68852" height="59.1235" transform="rotate(-90 0 7.68848)" fill="#5BE482"/>
</svg>
